<svg width="60" height="60" viewBox="0 0 60 60" fill="none" xmlns="http://www.w3.org/2000/svg">
<rect width="60" height="60" rx="15" fill="#F9DBCD"/>
<path d="M38.082 24.4609L38.9453 23.5469C39.1992 23.3438 39.1992 22.9375 38.9453 22.6836L38.6914 22.4297C38.4375 22.1758 38.0312 22.1758 37.8281 22.4297L36.9141 23.293C35.0859 21.7188 32.8008 20.7031 30.2109 20.5508V18.875H31.4805C31.8359 18.875 32.0898 18.6211 32.0898 18.2656V17.8594C32.0898 17.5547 31.8359 17.25 31.4805 17.25H27.418C27.1133 17.25 26.8086 17.5547 26.8086 17.8594V18.2656C26.8086 18.6211 27.1133 18.875 27.418 18.875H28.5859V20.5508C22.7461 21.0078 18.125 25.8828 18.125 31.875C18.125 38.1719 23.2031 43.25 29.5 43.25C35.7461 43.25 40.875 38.1719 40.875 31.875C40.875 29.0312 39.8086 26.4414 38.082 24.4609ZM29.5 41.625C24.0664 41.625 19.75 37.3086 19.75 31.875C19.75 26.4922 24.0664 22.125 29.5 22.125C34.8828 22.125 39.25 26.4922 39.25 31.875C39.25 37.3086 34.8828 41.625 29.5 41.625ZM29.7031 35.125C30.0078 35.125 30.3125 34.8711 30.3125 34.5156V25.9844C30.3125 25.6797 30.0078 25.375 29.7031 25.375H29.2969C28.9414 25.375 28.6875 25.6797 28.6875 25.9844V34.5156C28.6875 34.8711 28.9414 35.125 29.2969 35.125H29.7031Z" fill="#1E1E20"/>
</svg>
