<svg width="60" height="60" viewBox="0 0 60 60" fill="none" xmlns="http://www.w3.org/2000/svg">
<rect width="60" height="60" rx="15" fill="#CBF6E4"/>
<g clip-path="url(#clip0_417_3)">
<path d="M43.1797 29.1806C42.7267 29.1806 42.3594 29.5478 42.3594 30.0009C42.3594 36.8159 36.815 42.3604 30.0001 42.3604C23.1852 42.3602 17.6408 36.8159 17.6406 30.001C17.6408 23.186 23.1851 17.6416 29.9999 17.6416C33.0262 17.6415 35.8861 18.7226 38.1399 20.7008L35.5646 23.2762C34.0027 21.9791 32.0557 21.2729 30.0001 21.2729C25.1874 21.2729 21.272 25.1883 21.272 30.001C21.272 34.8137 25.1874 38.7291 30.0001 38.7291C34.8128 38.7291 38.7282 34.8137 38.7282 30.001C38.7282 29.5479 38.3609 29.1807 37.9079 29.1807C37.4548 29.1807 37.0876 29.5479 37.0876 30.001C37.0876 33.909 33.9081 37.0885 30.0001 37.0885C26.092 37.0885 22.9126 33.9091 22.9126 30.001C22.9126 26.0929 26.092 22.9135 30.0001 22.9135C31.6169 22.9135 33.1509 23.4517 34.3982 24.4426L31.7947 27.0462C31.2592 26.7197 30.6431 26.5447 29.9998 26.5448C28.0941 26.5448 26.5437 28.0952 26.5437 30.0009C26.5437 31.9067 28.0942 33.4571 29.9999 33.4571C31.9057 33.4571 33.4562 31.9067 33.4562 30.001C33.4562 29.3579 33.2812 28.7418 32.9547 28.2063L39.8994 21.2615C40.0595 21.1013 40.1396 20.8914 40.1396 20.6814C40.1396 20.4714 40.0595 20.2614 39.8994 20.1012C37.2551 17.457 33.7394 16.0009 29.9999 16.001C26.2605 16.001 22.7448 17.4573 20.1006 20.1014C17.4563 22.7456 16.0001 26.2614 16 30.001C16.0001 33.7405 17.4564 37.2561 20.1006 39.9003C22.7448 42.5446 26.2605 44.0009 30.0001 44.0009C33.7396 44.0009 37.2552 42.5447 39.8995 39.9004C42.5437 37.256 44 33.7404 44 30.0009C44 29.5478 43.6327 29.1806 43.1797 29.1806ZM30 31.8165C28.9988 31.8165 28.1844 31.002 28.1844 30.0009C28.1844 28.9998 28.9988 28.1854 30.0001 28.1854C30.4849 28.1854 30.9408 28.3741 31.2837 28.717C31.2837 28.717 31.2838 28.7171 31.2839 28.7171C31.284 28.7172 31.284 28.7172 31.2841 28.7173C31.6268 29.0602 31.8157 29.5161 31.8157 30.001C31.8156 31.0021 31.0012 31.8165 30 31.8165Z" fill="black"/>
</g>
<defs>
<clipPath id="clip0_417_3">
<rect width="28" height="28" fill="white" transform="translate(16 16)"/>
</clipPath>
</defs>
</svg>
