<svg width="60" height="60" viewBox="0 0 60 60" fill="none" xmlns="http://www.w3.org/2000/svg">
<rect width="60" height="60" rx="15" fill="#E4EFC4"/>
<path d="M30 38.5781C30.5586 38.5781 31.0156 38.1211 31.0156 37.5625V34.3125C31.0156 33.7539 30.5586 33.2969 30 33.2969C29.4414 33.2969 28.9844 33.7539 28.9844 34.3125V37.5625C28.9844 38.1211 29.4414 38.5781 30 38.5781ZM41.375 31.0625C41.375 29.7422 40.2578 28.625 38.9375 28.625H38.125V25.4766C38.125 21.0078 34.4688 17.3008 30 17.25C25.5312 17.25 21.875 20.9062 21.875 25.375V28.625H21.0625C19.6914 28.625 18.625 29.7422 18.625 31.0625V40.8125C18.625 42.1836 19.6914 43.25 21.0625 43.25H38.9375C40.2578 43.25 41.375 42.1836 41.375 40.8125V31.0625ZM23.5 28.625V25.375C23.5 21.8203 26.3945 18.875 30 18.875C33.5547 18.875 36.5 21.8203 36.5 25.375V28.625H23.5ZM39.75 40.8125C39.75 41.2695 39.3438 41.625 38.9375 41.625H21.0625C20.6055 41.625 20.25 41.2695 20.25 40.8125V31.0625C20.25 30.6562 20.6055 30.25 21.0625 30.25H38.9375C39.3438 30.25 39.75 30.6562 39.75 31.0625V40.8125Z" fill="#1E1E20"/>
</svg>
