<svg width="60" height="60" viewBox="0 0 60 60" fill="none" xmlns="http://www.w3.org/2000/svg">
<rect width="60" height="60" rx="15" fill="#C8E8FF"/>
<path d="M42.0938 38.375H18.125V20.9062C18.125 20.7031 17.9219 20.5 17.7188 20.5H16.9062C16.6523 20.5 16.5 20.7031 16.5 20.9062V39.1875C16.5 39.6445 16.8555 40 17.3125 40H42.0938C42.2969 40 42.5 39.8477 42.5 39.5938V38.7812C42.5 38.5781 42.2969 38.375 42.0938 38.375ZM21.4766 30.6562C21.3242 30.8086 21.3242 31.0625 21.4766 31.2148L22.0352 31.7734C22.1875 31.9258 22.4414 31.9258 22.5938 31.7734L26.3008 28.1172L30.6172 32.4336C30.9219 32.7383 31.4297 32.7383 31.7344 32.4336L36.5078 27.6602L38.7422 29.8945C38.9961 30.1484 39.3008 30.25 39.6055 30.25C40.2656 30.25 40.875 29.793 40.875 29.0312V22.9883C40.875 22.5312 40.4688 22.125 40.0117 22.125H33.9688C32.8516 22.125 32.293 23.4961 33.1055 24.2578L35.3398 26.543L31.1758 30.707L26.9102 26.3906C26.5547 26.0859 26.0469 26.0859 25.7422 26.3906L21.4766 30.6562ZM34.8828 23.75H39.25V28.1172L34.8828 23.75Z" fill="#1E1E20"/>
</svg>
