<svg width="60" height="60" viewBox="0 0 60 60" fill="none" xmlns="http://www.w3.org/2000/svg">
<rect width="60" height="60" rx="15" fill="#F0EEFD"/>
<path d="M20.9688 33.5C20.9688 32.8398 20.4102 32.2812 19.75 32.2812C19.0391 32.2812 18.5312 32.8398 18.5312 33.5C18.5312 34.2109 19.0391 34.7188 19.75 34.7188C20.4102 34.7188 20.9688 34.2109 20.9688 33.5ZM29.5 24.9688C30.1602 24.9688 30.7188 24.4609 30.7188 23.75C30.7188 23.0898 30.1602 22.5312 29.5 22.5312C28.7891 22.5312 28.2812 23.0898 28.2812 23.75C28.2812 24.4609 28.7891 24.9688 29.5 24.9688ZM22.5938 25.375C21.8828 25.375 21.375 25.9336 21.375 26.5938C21.375 27.3047 21.8828 27.8125 22.5938 27.8125C23.2539 27.8125 23.8125 27.3047 23.8125 26.5938C23.8125 25.9336 23.2539 25.375 22.5938 25.375ZM36.9141 25.9844C36.5586 25.7305 36.0508 25.7812 35.7461 26.0859L30.8203 32.1797C30.4141 32.0273 29.957 31.875 29.5 31.875C27.6719 31.875 26.25 33.3477 26.25 35.125C26.25 36.9531 27.6719 38.375 29.5 38.375C31.2773 38.375 32.75 36.9531 32.75 35.125C32.75 34.4141 32.4961 33.7539 32.0898 33.2461L37.0156 27.1523C37.3203 26.7969 37.2188 26.2891 36.9141 25.9844ZM31.125 35.125C31.125 36.0391 30.3633 36.75 29.5 36.75C28.5859 36.75 27.875 36.0391 27.875 35.125C27.875 34.2617 28.5859 33.5 29.5 33.5C30.3633 33.5 31.125 34.2617 31.125 35.125ZM39.25 32.2812C38.5391 32.2812 38.0312 32.8398 38.0312 33.5C38.0312 34.2109 38.5391 34.7188 39.25 34.7188C39.9102 34.7188 40.4688 34.2109 40.4688 33.5C40.4688 32.8398 39.9102 32.2812 39.25 32.2812ZM44.125 33.5C44.125 25.4258 37.5742 18.875 29.5 18.875C21.375 18.875 14.875 25.4258 14.875 33.5C14.875 36.1914 15.5859 38.7305 16.8555 40.8633C17.1094 41.3711 17.668 41.625 18.2266 41.625H40.7227C41.2812 41.625 41.8398 41.3711 42.0938 40.8633C43.3633 38.7305 44.125 36.1914 44.125 33.5ZM42.5 33.5C42.5 35.8359 41.8906 38.0703 40.7227 40L18.2266 40.0508C17.1094 38.0703 16.5 35.8359 16.5 33.5C16.5 26.3398 22.2891 20.5 29.5 20.5C36.6602 20.5 42.5 26.3398 42.5 33.5Z" fill="#1E1E20"/>
</svg>
