<svg width="24" height="24" viewBox="0 0 24 24" fill="none" xmlns="http://www.w3.org/2000/svg">
<g clip-path="url(#clip0_1_1759)">
<path d="M13.6491 12.0146L20.6579 5.00555C21.1141 4.54964 21.1141 3.81249 20.6579 3.35658C20.202 2.90067 19.4649 2.90067 19.009 3.35658L11.9999 10.3656L4.99106 3.35658C4.53493 2.90067 3.798 2.90067 3.34209 3.35658C2.88597 3.81249 2.88597 4.54964 3.34209 5.00555L10.3509 12.0146L3.34209 19.0237C2.88597 19.4796 2.88597 20.2167 3.34209 20.6726C3.5693 20.9001 3.86805 21.0143 4.16658 21.0143C4.46511 21.0143 4.76364 20.9001 4.99106 20.6726L11.9999 13.6636L19.009 20.6726C19.2364 20.9001 19.5349 21.0143 19.8335 21.0143C20.132 21.0143 20.4305 20.9001 20.6579 20.6726C21.1141 20.2167 21.1141 19.4796 20.6579 19.0237L13.6491 12.0146Z" fill="#1D1E21"/>
</g>
<defs>
<clipPath id="clip0_1_1759">
<rect width="18" height="18" fill="white" transform="translate(3 3)"/>
</clipPath>
</defs>
</svg>
