<?xml version="1.0" standalone="no"?>
<!DOCTYPE svg PUBLIC "-//W3C//DTD SVG 20010904//EN"
 "http://www.w3.org/TR/2001/REC-SVG-20010904/DTD/svg10.dtd">
<svg version="1.0" xmlns="http://www.w3.org/2000/svg"
 width="250.000000pt" height="53.000000pt" viewBox="0 0 250.000000 53.000000"
 preserveAspectRatio="xMidYMid meet">

<g transform="translate(0.000000,53.000000) scale(0.100000,-0.100000)"
fill="#000000" stroke="none">
<path d="M1543 343 c-28 -5 -70 -47 -75 -76 -12 -65 37 -127 101 -127 48 0 87
26 70 46 -8 10 -15 12 -23 4 -16 -16 -71 -12 -89 8 -23 25 -21 68 3 92 23 23
42 25 72 9 16 -8 24 -8 35 4 14 13 13 16 -3 25 -26 13 -65 19 -91 15z"/>
<path d="M2460 245 c0 -98 1 -105 20 -105 19 0 20 7 20 105 0 98 -1 105 -20
105 -19 0 -20 -7 -20 -105z"/>
<path d="M984 240 c29 -94 33 -101 55 -98 20 3 28 14 47 68 24 72 25 72 55
-29 11 -36 16 -42 37 -39 21 3 28 15 53 93 34 107 34 105 10 105 -16 0 -24
-13 -37 -60 -9 -33 -20 -63 -25 -66 -4 -2 -16 24 -27 58 -16 54 -21 63 -42 63
-20 0 -27 -10 -45 -65 -25 -72 -26 -72 -56 28 -9 33 -17 42 -34 42 l-22 0 31
-100z"/>
<path d="M2040 315 c0 -9 -7 -18 -15 -21 -8 -4 -15 -12 -15 -20 0 -8 7 -14 15
-14 11 0 15 -12 15 -48 0 -55 12 -72 52 -72 21 0 28 5 28 19 0 12 -7 18 -17
17 -14 -1 -19 8 -21 42 -3 37 -1 42 17 42 12 0 21 7 21 15 0 8 -9 15 -20 15
-13 0 -20 7 -20 20 0 13 -7 20 -20 20 -11 0 -20 -7 -20 -15z"/>
<path d="M1285 275 c-67 -66 24 -177 100 -122 24 18 11 39 -18 28 -24 -9 -67
3 -67 19 0 6 25 10 60 10 33 0 60 2 60 4 0 23 -26 66 -46 75 -38 17 -63 13
-89 -14z m69 -11 c30 -12 18 -34 -19 -34 -38 0 -46 13 -17 29 21 13 17 12 36
5z"/>
<path d="M1705 288 c-51 -27 -60 -84 -20 -123 51 -51 135 -17 135 55 0 62 -61
98 -115 68z m69 -44 c19 -49 -13 -85 -52 -58 -24 17 -28 44 -10 62 17 17 55
15 62 -4z"/>
<path d="M1850 220 c0 -73 2 -80 20 -80 17 0 20 7 20 49 0 95 62 97 68 2 3
-43 6 -51 23 -51 17 0 19 7 19 60 0 83 -36 119 -90 90 -13 -7 -21 -7 -25 0 -3
5 -13 10 -21 10 -11 0 -14 -17 -14 -80z"/>
<path d="M2157 293 c-4 -3 -7 -39 -7 -80 0 -71 1 -73 24 -73 23 0 25 4 28 53
2 43 7 54 26 62 25 11 32 51 7 41 -8 -3 -22 -9 -30 -12 -8 -3 -15 -1 -15 5 0
12 -23 15 -33 4z"/>
<path d="M2296 279 c-20 -16 -26 -29 -26 -59 0 -72 84 -106 135 -55 40 39 32
96 -16 120 -38 20 -62 19 -93 -6z m82 -31 c31 -31 -11 -88 -50 -67 -34 18 -17
79 22 79 9 0 21 -5 28 -12z"/>
</g>
</svg>
