<svg width="186" height="40" viewBox="0 0 186 40" fill="none" xmlns="http://www.w3.org/2000/svg">
<path d="M57.2286 30.4285V14.1714H51.4286V10.4285H67.3143V14.1714H61.3429V30.4285H57.2286Z" fill="#352D62"/>
<path d="M74.0132 30.7142C72.3941 30.7142 70.9751 30.3809 69.756 29.7142C68.537 29.0475 67.5846 28.1333 66.8989 26.9713C66.2322 25.8094 65.8989 24.4761 65.8989 22.9713C65.8989 21.4094 66.2227 20.038 66.8703 18.8571C67.537 17.6571 68.4418 16.7142 69.5846 16.0285C70.7465 15.3428 72.0799 14.9999 73.5846 14.9999C74.937 14.9999 76.1465 15.3333 77.2132 15.9999C78.2989 16.6475 79.137 17.5333 79.7275 18.6571C80.337 19.7809 80.6227 21.0666 80.5846 22.5142L80.556 23.7428H69.6989C69.9084 24.8285 70.4227 25.6856 71.2418 26.3142C72.0799 26.9428 73.137 27.2571 74.4132 27.2571C75.0989 27.2571 75.718 27.1523 76.2703 26.9428C76.8418 26.7333 77.4513 26.3618 78.0989 25.8285L79.9846 28.4571C79.1656 29.1809 78.2227 29.7428 77.156 30.1428C76.1084 30.5237 75.0608 30.7142 74.0132 30.7142ZM73.6132 18.3714C71.4608 18.3714 70.1656 19.3428 69.7275 21.2856H76.8703V21.1714C76.8132 20.3523 76.4703 19.6856 75.8418 19.1714C75.2322 18.638 74.4894 18.3714 73.6132 18.3714Z" fill="#352D62"/>
<path d="M88.7257 30.7142C87.4685 30.7142 86.3352 30.3713 85.3257 29.6856C84.3162 28.9999 83.5066 28.0666 82.8971 26.8856C82.3066 25.7047 82.0114 24.3618 82.0114 22.8571C82.0114 21.3142 82.3066 19.9618 82.8971 18.7999C83.5066 17.619 84.3257 16.6952 85.3543 16.0285C86.4019 15.3618 87.5828 15.0285 88.8971 15.0285C89.9638 15.0285 90.8971 15.2475 91.6971 15.6856C92.4971 16.1047 93.1352 16.6571 93.6114 17.3428V15.3428H97.4971V30.4285H93.5828V28.3999C93.0495 29.0666 92.3543 29.619 91.4971 30.0571C90.659 30.4952 89.7352 30.7142 88.7257 30.7142ZM89.7828 27.3142C90.9447 27.3142 91.8876 26.9047 92.6114 26.0856C93.3352 25.2666 93.6971 24.1904 93.6971 22.8571C93.6971 21.5237 93.3352 20.4475 92.6114 19.6285C91.8876 18.8094 90.9447 18.3999 89.7828 18.3999C88.64 18.3999 87.7066 18.8094 86.9828 19.6285C86.2781 20.4475 85.9257 21.5237 85.9257 22.8571C85.9257 24.1904 86.2781 25.2666 86.9828 26.0856C87.7066 26.9047 88.64 27.3142 89.7828 27.3142Z" fill="#352D62"/>
<path d="M100.967 30.4285V15.3428H104.738L104.795 17.4856C105.329 16.7618 105.995 16.1809 106.795 15.7428C107.595 15.2856 108.433 15.0571 109.31 15.0571C110.395 15.0571 111.3 15.2952 112.024 15.7714C112.748 16.2285 113.338 16.9618 113.795 17.9714C114.348 17.0761 115.091 16.3714 116.024 15.8571C116.976 15.3237 117.957 15.0571 118.967 15.0571C122.414 15.0571 124.138 17.1333 124.138 21.2856V30.4285H120.224V21.5714C120.224 19.4761 119.367 18.4285 117.652 18.4285C116.738 18.4285 115.976 18.7142 115.367 19.2856C114.776 19.8571 114.481 20.5714 114.481 21.4285V30.4285H110.567V21.5142C110.567 20.5237 110.348 19.7618 109.91 19.2285C109.472 18.6952 108.843 18.4285 108.024 18.4285C107.129 18.4285 106.376 18.7142 105.767 19.2856C105.176 19.8571 104.881 20.5523 104.881 21.3714V30.4285H100.967Z" fill="#352D62"/>
<path d="M131.282 30.4285V14.1714H125.482V10.4285H141.368V14.1714H135.396V30.4285H131.282Z" fill="#352D62"/>
<path d="M148.067 30.7142C146.448 30.7142 145.029 30.3809 143.81 29.7142C142.591 29.0475 141.638 28.1333 140.952 26.9713C140.286 25.8094 139.952 24.4761 139.952 22.9713C139.952 21.4094 140.276 20.038 140.924 18.8571C141.591 17.6571 142.495 16.7142 143.638 16.0285C144.8 15.3428 146.133 14.9999 147.638 14.9999C148.991 14.9999 150.2 15.3333 151.267 15.9999C152.352 16.6475 153.191 17.5333 153.781 18.6571C154.391 19.7809 154.676 21.0666 154.638 22.5142L154.61 23.7428H143.752C143.962 24.8285 144.476 25.6856 145.295 26.3142C146.133 26.9428 147.191 27.2571 148.467 27.2571C149.152 27.2571 149.772 27.1523 150.324 26.9428C150.895 26.7333 151.505 26.3618 152.152 25.8285L154.038 28.4571C153.219 29.1809 152.276 29.7428 151.21 30.1428C150.162 30.5237 149.114 30.7142 148.067 30.7142ZM147.667 18.3714C145.514 18.3714 144.219 19.3428 143.781 21.2856H150.924V21.1714C150.867 20.3523 150.524 19.6856 149.895 19.1714C149.286 18.638 148.543 18.3714 147.667 18.3714Z" fill="#352D62"/>
<path d="M163.636 30.7142C162.208 30.7142 160.922 30.3713 159.779 29.6856C158.655 28.9999 157.76 28.0666 157.094 26.8856C156.446 25.7047 156.122 24.3618 156.122 22.8571C156.122 21.3714 156.446 20.038 157.094 18.8571C157.76 17.6761 158.655 16.7428 159.779 16.0571C160.922 15.3714 162.208 15.0285 163.636 15.0285C164.989 15.0285 166.217 15.2761 167.322 15.7714C168.446 16.2666 169.322 16.9618 169.951 17.8571L167.808 20.4285C167.408 19.8761 166.855 19.4094 166.151 19.0285C165.446 18.6285 164.732 18.4285 164.008 18.4285C163.208 18.4285 162.494 18.6285 161.865 19.0285C161.255 19.4094 160.77 19.9333 160.408 20.5999C160.065 21.2666 159.894 22.019 159.894 22.8571C159.894 23.6952 160.074 24.4475 160.436 25.1142C160.798 25.7809 161.294 26.3142 161.922 26.7142C162.551 27.0952 163.255 27.2856 164.036 27.2856C164.779 27.2856 165.465 27.1237 166.094 26.7999C166.722 26.4571 167.294 25.9809 167.808 25.3713L169.951 27.9428C169.303 28.7809 168.408 29.4571 167.265 29.9713C166.122 30.4666 164.913 30.7142 163.636 30.7142Z" fill="#352D62"/>
<path d="M171.98 30.4285V9.28564H175.837V17.3142C176.351 16.6475 177.027 16.1047 177.865 15.6856C178.723 15.2475 179.618 15.0285 180.551 15.0285C184.018 15.0285 185.751 17.0856 185.751 21.1999V30.4285H181.865V21.4856C181.865 19.3333 180.961 18.2952 179.151 18.3714C178.218 18.3714 177.437 18.6571 176.808 19.2285C176.199 19.7999 175.894 20.5047 175.894 21.3428V30.4285H171.98Z" fill="#352D62"/>
<path d="M0 11.4286C0 5.11675 5.11675 0 11.4286 0H28.5714C34.8833 0 40 5.11675 40 11.4286V16.7145L26.1006 11.4553C25.8906 11.3701 25.6699 11.3057 25.4412 11.2647C25.055 11.1944 24.667 11.1947 24.2932 11.2582C23.8015 11.3406 23.3464 11.5307 22.9527 11.8034C22.5599 12.0744 22.2222 12.4317 21.9717 12.8607C21.779 13.189 21.6409 13.5532 21.5699 13.9409C21.5276 14.1686 21.5099 14.397 21.5152 14.6228V40H18.4849V14.6226C18.4901 14.4001 18.4729 14.1752 18.432 13.9509C18.3606 13.5544 18.2191 13.1823 18.0208 12.8478C17.7761 12.4331 17.4498 12.0861 17.071 11.8198C16.6654 11.5337 16.1932 11.3358 15.6821 11.2541C15.3232 11.1959 14.9515 11.1959 14.5813 11.2607C14.3438 11.3016 14.115 11.3676 13.8975 11.456L0 16.7145V11.4286Z" fill="url(#paint0_linear_123_534)"/>
<path d="M28.1818 40H28.5714C34.8833 40 40 34.8833 40 28.5714V23.8424L28.1818 19.3707V40Z" fill="url(#paint1_linear_123_534)"/>
<path d="M11.8182 19.3707V40H11.4286C5.11675 40 0 34.8833 0 28.5714V23.8425L11.8182 19.3707Z" fill="url(#paint2_linear_123_534)"/>
<defs>
<linearGradient id="paint0_linear_123_534" x1="35.7143" y1="2.44898" x2="5.10204" y2="37.7551" gradientUnits="userSpaceOnUse">
<stop stop-color="#F1B09E"/>
<stop offset="0.509073" stop-color="#DA7AE4"/>
<stop offset="1" stop-color="#876AEE"/>
</linearGradient>
<linearGradient id="paint1_linear_123_534" x1="35.7143" y1="2.44898" x2="5.10204" y2="37.7551" gradientUnits="userSpaceOnUse">
<stop stop-color="#F1B09E"/>
<stop offset="0.509073" stop-color="#DA7AE4"/>
<stop offset="1" stop-color="#876AEE"/>
</linearGradient>
<linearGradient id="paint2_linear_123_534" x1="35.7143" y1="2.44898" x2="5.10204" y2="37.7551" gradientUnits="userSpaceOnUse">
<stop stop-color="#F1B09E"/>
<stop offset="0.509073" stop-color="#DA7AE4"/>
<stop offset="1" stop-color="#876AEE"/>
</linearGradient>
</defs>
</svg>
