<svg width="40" height="40" viewBox="0 0 40 40" fill="none" xmlns="http://www.w3.org/2000/svg">
<g clip-path="url(#clip0_519_740)">
<path d="M4.01444 7.27431H11.8195C11.8195 7.76886 11.8686 8.26154 11.9686 8.73973C12.0631 9.20513 12.2049 9.66329 12.3922 10.107C12.5759 10.5379 12.8013 10.9542 13.0613 11.3414C13.3432 11.7577 13.905 11.8668 14.3231 11.5869C14.7394 11.305 14.8485 10.7415 14.5685 10.3251C14.3722 10.0343 14.2031 9.72338 14.0649 9.3997C13.9268 9.06699 13.8195 8.72336 13.7486 8.37429C13.6759 8.0161 13.6377 7.64521 13.6377 7.27431C13.6377 6.90342 13.6759 6.53253 13.7486 6.17433C13.8195 5.82526 13.9268 5.48164 14.0649 5.15259C14.2031 4.82533 14.3704 4.51623 14.5667 4.22536C14.7631 3.93449 14.9867 3.66357 15.2321 3.41813C15.4812 3.17089 15.754 2.94727 16.043 2.75091C16.3339 2.55456 16.6448 2.38548 16.9685 2.24733C17.2994 2.10731 17.643 2.00188 17.9921 1.93098C18.7103 1.78371 19.4739 1.78371 20.192 1.93098C20.5393 2.00188 20.8847 2.10918 21.2137 2.24733C21.541 2.38548 21.8501 2.55277 22.1409 2.74912C22.4318 2.94548 22.7027 3.1691 22.9482 3.41455C23.1954 3.66178 23.419 3.93449 23.6154 4.22357C23.8117 4.51444 23.9808 4.82533 24.119 5.14901C24.259 5.47994 24.3644 5.82356 24.4353 6.17263C24.508 6.53261 24.5462 6.90351 24.5462 7.2744C24.5462 7.64529 24.508 8.01618 24.4353 8.37438C24.3644 8.72166 24.2571 9.06707 24.119 9.39612C23.9808 9.72338 23.8135 10.0325 23.6154 10.3233C23.3354 10.7397 23.4445 11.3051 23.8608 11.5851C24.0172 11.6905 24.1935 11.7396 24.3681 11.7396C24.6608 11.7396 24.9462 11.5996 25.1226 11.3396C25.3844 10.9542 25.6098 10.5379 25.7934 10.1033C25.9807 9.6615 26.1225 9.20334 26.2171 8.73973C26.3153 8.26154 26.3644 7.76886 26.3644 7.27431H34.1695L32.0859 9.35785C31.7314 9.71238 31.7314 10.2887 32.0859 10.6433C32.2622 10.8215 32.495 10.9105 32.7277 10.9105C32.9605 10.9105 33.1931 10.8215 33.3713 10.6451L37.0057 7.01072C37.0893 6.92711 37.1566 6.82527 37.2038 6.7144C37.2966 6.49256 37.2966 6.24166 37.2038 6.01991C37.1584 5.90716 37.0911 5.80719 37.0057 5.72359L33.3713 2.08924C33.0168 1.73471 32.4404 1.73471 32.0859 2.08924C31.7314 2.44377 31.7314 3.02013 32.0859 3.37466L34.1695 5.45641H26.1062C26.0172 5.11458 25.9299 4.77096 25.7917 4.44191C25.608 4.00924 25.3826 3.59283 25.1208 3.20558C24.8608 2.82199 24.5627 2.46013 24.2335 2.12929C23.9045 1.80204 23.5445 1.50384 23.159 1.24203C22.7736 0.980227 22.3572 0.754812 21.9227 0.571155C21.4809 0.38392 21.0227 0.242108 20.5591 0.14751C19.6028 -0.0488445 18.5847 -0.0488445 17.6284 0.14751C17.163 0.242023 16.7048 0.383834 16.2611 0.571155C15.8284 0.758391 15.412 0.983892 15.0248 1.2457C14.6412 1.50571 14.2793 1.80383 13.9485 2.13296C13.6212 2.46201 13.3231 2.82199 13.0612 3.20745C12.8012 3.59471 12.5758 4.01103 12.3904 4.44379C12.2522 4.77105 12.1649 5.11467 12.0777 5.4565H4.01444L6.09798 3.37296C6.45251 3.01843 6.45251 2.44206 6.09798 2.08753C5.74345 1.73301 5.16709 1.73301 4.81256 2.08753L1.17821 5.72163C1.0946 5.80523 1.02728 5.90707 0.980065 6.01795C0.887342 6.23979 0.887342 6.49068 0.980065 6.71244C1.02549 6.82519 1.09282 6.92515 1.17821 7.00876L4.81256 10.6431C4.99076 10.8213 5.22342 10.9104 5.45617 10.9104C5.68891 10.9104 5.92157 10.8213 6.09977 10.6449C6.4543 10.2886 6.4543 9.714 6.09977 9.35768L4.01444 7.27431Z" fill="white"/>
<path d="M36.3675 20.0611C35.413 19.8211 34.4185 19.9829 33.6367 20.4337V19.9465C33.6367 17.9503 32.0059 16.3285 30.0005 16.3285C29.3387 16.3285 28.7169 16.5049 28.1824 16.814V16.3285C28.1824 14.3231 26.5516 12.6923 24.5462 12.6923C23.8844 12.6923 23.2626 12.8705 22.7281 13.1814V7.25617C22.7281 5.26169 21.0973 3.63818 19.0919 3.63818C17.0865 3.63818 15.4557 5.26177 15.4557 7.25617V18.5793C14.943 18.292 14.3485 18.1284 13.7103 18.1284C12.574 18.1284 11.6231 18.5357 10.9577 19.3047C10.1631 20.2247 9.83955 21.621 10.065 23.1373C11.034 29.4898 13.3448 34.8422 16.9301 39.0457C17.4483 39.6529 18.2119 40.0002 19.0246 40.0002H33.2603C34.362 40.0002 35.3493 39.3566 35.771 38.3566C37.831 33.4659 39.0399 28.1717 39.089 23.8373C39.1109 22.0228 37.991 20.4701 36.3675 20.0611ZM34.0949 37.6494C33.9585 37.973 33.6313 38.1821 33.2586 38.1821H19.0229C18.7465 38.1821 18.4829 38.0658 18.3138 37.8675C14.9485 33.9241 12.7777 28.8771 11.8614 22.8664C11.7159 21.8919 11.8923 21.0047 12.3322 20.492C12.6486 20.1248 13.0995 19.9466 13.7067 19.9466C14.6848 19.9466 15.4521 20.7447 15.4521 21.7647C15.4521 22.2665 15.8594 22.6738 16.3612 22.6738C16.863 22.6738 17.2703 22.2665 17.2703 21.7647V7.25617C17.2739 6.28164 18.1065 5.45625 19.092 5.45625C20.0774 5.45625 20.9101 6.28164 20.9101 7.25617V16.3285C20.9101 16.8302 21.3173 17.2375 21.8191 17.2375C22.3209 17.2375 22.7282 16.8302 22.7282 16.3285C22.7282 15.3267 23.5446 14.5104 24.5463 14.5104C25.5481 14.5104 26.3643 15.3267 26.3643 16.3285V19.9464C26.3643 20.4482 26.7716 20.8555 27.2734 20.8555C27.7752 20.8555 28.1825 20.4482 28.1825 19.9464C28.1825 18.9701 29.0152 18.1465 30.0006 18.1465C30.9859 18.1465 31.8186 18.9719 31.8186 19.9464V23.5644C31.8186 24.0662 32.2259 24.4735 32.7277 24.4735C33.2295 24.4735 33.6368 24.0662 33.6368 23.5644C33.6368 22.4354 34.784 21.5463 35.9221 21.8227C36.7148 22.0227 37.282 22.8608 37.2711 23.8153C37.2256 27.8644 36.0384 33.0368 34.0949 37.6494Z" fill="white"/>
</g>
<defs>
<clipPath id="clip0_519_740">
<rect width="40" height="40" fill="white"/>
</clipPath>
</defs>
</svg>
