<svg width="99" height="80" viewBox="0 0 99 80" fill="none" xmlns="http://www.w3.org/2000/svg">
<path fill-rule="evenodd" clip-rule="evenodd" d="M99 0H3.225C1.41094 0 0 1.60714 0 3.21429V80H6.45V25.7143H99V19.2857H6.45V6.42857H99V0ZM99 32.1429H80.625C78.8109 32.1429 77.4 33.75 77.4 35.3571V48.2143C77.4 50.0223 78.8109 51.4286 80.625 51.4286H99V45H83.85V38.5714H99V32.1429ZM99 64.2857H79.0125C78.0047 64.2857 77.4 65.0893 77.4 65.8929V69.1071C77.4 70.1116 78.0047 70.7143 79.0125 70.7143H97.8732C98.5994 68.9531 99 67.0233 99 65V64.2857ZM49.9875 70.7143H20.9625C19.9547 70.7143 19.35 70.1116 19.35 69.1071V65.8929C19.35 65.0893 19.9547 64.2857 20.9625 64.2857H49.9875C50.7937 64.2857 51.6 65.0893 51.6 65.8929V69.1071C51.6 70.1116 50.7937 70.7143 49.9875 70.7143ZM62.8875 51.4286H20.9625C19.9547 51.4286 19.35 50.8259 19.35 49.8214V46.6071C19.35 45.8036 19.9547 45 20.9625 45H62.8875C63.6937 45 64.5 45.8036 64.5 46.6071V49.8214C64.5 50.8259 63.6937 51.4286 62.8875 51.4286Z" fill="#F9DBCD"/>
</svg>
