<svg width="106" height="92" viewBox="0 0 106 92" fill="none" xmlns="http://www.w3.org/2000/svg">
<path fill-rule="evenodd" clip-rule="evenodd" d="M106 14.6084C105.711 14.5839 105.419 14.5714 105.125 14.5714H101.5V10.9286C101.5 5.00893 96.5156 0 90.625 0H21.75C9.51562 0 0 9.79018 0 21.8571V80.1429C0 84.5515 1.22354 88.6089 3.35724 92H13.1973C9.56551 89.3819 7.25 85.0948 7.25 80.1429V21.8571C7.25 13.8884 13.5938 7.28571 21.75 7.28571H90.625C92.4375 7.28571 94.25 9.10714 94.25 10.9286V14.5714H25.375C23.3359 14.5714 21.75 16.3929 21.75 18.2143C21.75 20.2634 23.3359 21.8571 25.375 21.8571H105.125C105.419 21.8571 105.714 21.9051 106 21.9934V14.6084ZM79.75 58.2857C79.75 54.4152 82.9219 51 87 51C90.8516 51 94.25 54.4152 94.25 58.2857C94.25 62.3839 90.8516 65.5714 87 65.5714C82.9219 65.5714 79.75 62.3839 79.75 58.2857Z" fill="#B5ECD5"/>
</svg>
