<svg width="98" height="90" viewBox="0 0 98 90" fill="none" xmlns="http://www.w3.org/2000/svg">
<path fill-rule="evenodd" clip-rule="evenodd" d="M97.9551 76.1696C92.4808 77.9113 86.0163 79.0434 79.0625 79.3571V82.9643C79.0625 85.4763 77.9746 87.85 76.0069 90H62.4455C68.6303 87.6011 71.875 84.6441 71.875 82.9643V71.692C64.6875 76.4263 52.7832 79.3571 39.5312 79.3571C26.0547 79.3571 14.1504 76.4263 7.1875 71.692V82.9643C7.1875 84.6441 10.3686 87.6011 16.5277 90H3.02452C1.07409 87.85 0 85.4763 0 82.9643V39.6786C0 29.7589 17.0703 22.7701 35.9375 21.8683V18.0357C35.9375 10.1451 47.168 5.41071 47.3926 5.41071C54.5801 2.02902 64.4629 0 75.4688 0C84.4181 0 91.9712 1.20526 98 3.13151V10.2044C92.1369 8.36145 84.2185 7.21429 75.4688 7.21429C57.2754 7.21429 42.4512 12.1741 42.4512 18.0357C42.4512 19.6138 43.3496 20.7411 44.6973 22.0938C51.6602 22.3192 62.4414 23.8973 70.752 28.8571H75.4688C84.2185 28.8571 92.1369 27.7621 98 25.9482V32.9049C92.2421 34.7117 85.3756 35.8 77.9395 36.0714C78.6133 37.1987 79.0625 38.5513 79.0625 39.6786V50.5C86.8949 50.1165 93.2649 48.673 98 46.8976V54.4793C92.4827 56.205 85.9689 57.3144 79.0625 57.7143V72.1429C86.9375 71.7619 93.2895 70.3351 98 68.576V75C98 75.3936 97.9848 75.7836 97.9551 76.1696ZM39.5312 72.1429C60.4199 72.1429 71.875 64.4777 71.875 61.3214V50.0491C64.6875 54.7835 52.7832 57.7143 39.5312 57.7143C26.0547 57.7143 14.1504 54.7835 7.1875 50.0491V61.3214C7.1875 64.4777 18.418 72.1429 39.5312 72.1429ZM6.51367 39.6786C6.51367 45.7656 21.3379 50.5 39.5312 50.5C57.7246 50.5 72.3242 45.7656 72.3242 39.6786C72.3242 33.817 57.7246 28.8571 39.5312 28.8571C21.3379 28.8571 6.51367 33.817 6.51367 39.6786Z" fill="#E9FFAA"/>
</svg>
