<svg width="83" height="88" viewBox="0 0 83 88" fill="none" xmlns="http://www.w3.org/2000/svg">
<path fill-rule="evenodd" clip-rule="evenodd" d="M83 0.819041C82.7726 0.942277 82.5453 1.07942 82.3179 1.23047L73.4687 7.58789L65.4427 2.05078C63.7964 0.820312 61.7384 0.205078 59.6805 0.205078C57.6225 0.205078 55.7704 0.820312 53.9182 2.05078L46.098 7.58789L38.072 2.05078C36.4257 0.820312 34.3677 0.205078 32.3098 0.205078C30.2518 0.205078 28.1939 0.820312 26.5475 2.05078L18.5215 7.58789L9.67235 1.23047C8.43758 0.410156 7.20282 0 5.96805 0C2.88113 0.205078 0 2.66602 0 6.15234V88H6.58543V7.17773L14.8172 12.9199L18.5215 15.791L22.4316 12.9199L30.4576 7.38281C30.8692 6.97266 31.6924 6.76758 32.3098 6.76758C32.9272 6.76758 33.5445 6.97266 34.1619 7.38281L42.1879 12.9199L46.098 15.791L49.8023 12.9199L57.8283 7.38281C58.4457 6.97266 59.0631 6.76758 59.6805 6.76758C60.5037 6.76758 61.121 6.97266 61.7384 7.38281L69.5586 12.9199L73.4687 15.791L77.3788 12.9199L83 8.9988V0.819041ZM19.7563 50.8594C19.7563 50.0391 20.3737 49.2188 21.4027 49.2188H70.7934C71.6166 49.2188 72.4398 50.0391 72.4398 50.8594V54.1406C72.4398 55.166 71.6166 55.7813 70.7934 55.7813H21.4027C20.3737 55.7813 19.7563 55.166 19.7563 54.1406V50.8594ZM19.7563 70.5469C19.7563 69.7266 20.3737 68.9062 21.4027 68.9062H70.7934C71.6166 68.9062 72.4398 69.7266 72.4398 70.5469V73.8281C72.4398 74.8535 71.6166 75.4688 70.7934 75.4688H21.4027C20.3737 75.4688 19.7563 74.8535 19.7563 73.8281V70.5469ZM19.7563 31.1719C19.7563 30.3516 20.3737 29.5313 21.4027 29.5313H70.7934C71.6166 29.5313 72.4398 30.3516 72.4398 31.1719V34.4531C72.4398 35.4785 71.6166 36.0938 70.7934 36.0938H21.4027C20.3737 36.0938 19.7563 35.4785 19.7563 34.4531V31.1719Z" fill="#A8DBFF"/>
</svg>
