<svg width="106" height="89" viewBox="0 0 106 89" fill="none" xmlns="http://www.w3.org/2000/svg">
<path fill-rule="evenodd" clip-rule="evenodd" d="M81.5485 89C81.8372 88.5965 82.1385 88.1965 82.4419 87.7937C84.1577 85.5159 85.9444 83.1439 85.9444 79.4852C85.9444 74.5173 81.3993 72.8614 76.441 72.8614C68.3837 72.8614 66.1111 77.2083 66.1111 79.4852C66.1111 82.2458 67.6404 84.0871 69.2924 86.076C70.048 86.9858 70.8293 87.9264 71.5016 89H63.1016C61.2877 86.4213 59.5 83.322 59.5 79.4852C59.5 71.8264 66.5243 66.2376 76.441 66.2376C90.8622 66.2376 96.6933 76.9958 89.7703 89H81.5485ZM106 34.1168C98.6211 35.1248 90.7145 35.3883 87.184 32.7048C85.0479 30.9723 86.2172 29.1394 87.9549 26.4156C89.7465 23.6072 92.1424 19.8517 92.1424 14.2825C92.1424 5.38181 83.6719 0 74.7882 0C66.1111 0 59.0868 5.5888 59.0868 14.0755C59.0868 18.6943 61.7573 22.5328 63.8647 25.562C65.8183 28.3701 67.2881 30.4828 65.6979 31.8769C60.1198 36.4307 38.8403 32.7048 31.816 31.4629C31.8691 31.7289 31.9293 32.026 31.9951 32.3511C33.2105 38.3513 36.3553 53.8771 32.4358 58.7859C30.9692 60.6471 29.2713 59.4487 26.7509 57.6697C23.9454 55.6896 20.1208 52.9901 14.4618 52.9901C5.57812 52.9901 0 60.8558 0 69.5495C0 78.2432 5.37153 86.5229 14.0486 86.5229C18.4195 86.5229 22.2171 84.0823 25.3727 82.0543C28.78 79.8646 31.4387 78.1559 33.2622 80.5201C34.6104 82.2975 34.8618 85.5155 34.6026 89H41.1516C41.5157 80.5247 39.2532 72.8614 30.9896 72.8614C26.561 72.8614 23.7937 74.8826 21.225 76.7586C19.0006 78.3833 16.9251 79.8992 14.0486 79.8992C10.9497 79.8992 6.61111 76.7943 6.61111 69.5495C6.61111 64.5817 9.29688 59.6139 14.4618 59.6139C18.1135 59.6139 20.6486 61.4041 23.0828 63.1231C25.331 64.7107 27.4932 66.2376 30.3698 66.2376C41.9392 66.2376 41.7326 50.9202 40.0799 39.7426C52.0625 41.1915 72.7222 42.6405 72.7222 30.6349C72.7222 26.3001 70.6969 23.5768 68.8213 21.0548C67.2039 18.88 65.6979 16.855 65.6979 14.0755C65.6979 8.69369 70.6562 6.62376 74.7882 6.62376C79.7465 6.62376 85.5312 9.31467 85.5312 14.2825C85.5312 17.9412 83.8562 20.4811 82.2476 22.92C80.7621 25.1725 79.3333 27.3388 79.3333 30.2209C79.3333 41.6112 93.6959 42.3203 106 40.7627V34.1168Z" fill="#DBD6FF"/>
</svg>
