<svg width="116" height="88" viewBox="0 0 116 88" fill="none" xmlns="http://www.w3.org/2000/svg">
<path fill-rule="evenodd" clip-rule="evenodd" d="M116 15.9866C113.907 15.4364 111.72 15.1429 109.475 15.1429C105.464 15.1429 101.689 16.0893 98.15 17.7455C90.6 7.09821 78.0953 0 64.175 0C41.7609 0 23.5938 17.7455 22.65 39.9866C9.20156 44.7188 0 57.4955 0 71.9286C0 77.7548 1.43058 83.2223 3.96149 88H12.9413C9.55677 83.5464 7.55 77.979 7.55 71.9286C7.55 58.6786 17.4594 47.558 30.4359 45.6652C30.2 44.4821 30.2 43.0625 30.2 41.6429C30.2 22.9509 45.3 7.57143 64.175 7.57143C78.3313 7.57143 90.3641 16.3259 95.5547 28.8661C99.0938 25.0804 103.812 22.7143 109.475 22.7143C111.766 22.7143 113.964 23.129 116 23.8871V15.9866Z" fill="#ADFFF0"/>
</svg>
