<svg width="89" height="86" viewBox="0 0 89 86" fill="none" xmlns="http://www.w3.org/2000/svg">
<path fill-rule="evenodd" clip-rule="evenodd" d="M89 0.533441C83.1911 -0.762258 75.7499 0.296981 67.2779 3.77074C62.0416 5.80105 56.5777 8.73372 51.1138 12.3432C45.4223 8.73372 39.9584 5.80105 34.7221 3.77074C21.5177 -1.64342 10.8175 -1.19224 4.8983 4.89869C-3.98054 13.4711 -0.337937 31.5183 12.1835 50.4679C3.48464 63.7892 -0.929007 76.5661 0.163898 86H7.43204C6.20115 79.3499 9.30272 68.8304 16.7368 57.01C20.607 61.9729 24.9326 66.7103 29.7135 71.6733C34.4945 76.4107 39.503 80.4713 44.5116 84.3063C43.5734 84.8745 42.6232 85.4427 41.6665 86H60.3335C59.3768 85.4427 58.4266 84.8745 57.4884 84.3063C62.497 80.4713 67.5055 76.4107 72.2865 71.6733C77.0674 66.7103 81.393 61.9729 85.2632 57.01C86.6623 59.2345 87.9079 61.4129 89 63.5282V37.6331C87.9079 39.7484 86.6623 41.9268 85.2632 44.1513C81.393 39.1884 77.0674 34.451 72.2865 29.488C67.5055 24.7506 62.497 20.69 57.4884 16.855C61.5863 14.3735 65.9119 11.892 70.0098 10.3129C78.0234 7.13662 84.644 6.44485 89 8.12958V0.533441ZM18.3304 7.15459C14.6878 7.15459 11.7282 8.28254 9.90689 10.0873C4.67064 15.2758 6.94727 28.5856 16.7368 44.1513C20.607 39.1884 24.9326 34.451 29.7135 29.488C34.4945 24.7506 39.503 20.69 44.5116 16.855C40.4137 14.3735 36.0881 11.892 31.9902 10.3129C26.7539 8.28254 22.2007 7.15459 18.3304 7.15459ZM21.0624 50.6934C24.9326 55.882 29.4859 61.2962 34.9498 66.4847C40.186 71.6733 45.6499 76.1851 51.1138 80.0201C56.5777 76.1851 61.814 71.6733 67.0502 66.4847C72.5141 61.2962 77.0674 55.882 80.9376 50.6934C77.0674 45.2793 72.5141 39.8651 67.0502 34.6766C61.814 29.488 56.3501 24.9762 51.1138 21.1412C45.6499 24.9762 40.186 29.488 34.9498 34.6766C29.4859 39.8651 24.9326 45.2793 21.0624 50.6934ZM38.1371 50.4679C38.1371 43.7002 44.0563 37.8348 51.1138 37.8348C57.9437 37.8348 63.8629 43.7002 63.8629 50.4679C63.8629 57.4611 57.9437 63.1009 51.1138 63.1009C44.0563 63.1009 38.1371 57.4611 38.1371 50.4679ZM45.4223 50.4679C45.4223 53.6261 47.9266 55.882 51.1138 55.882C54.0734 55.882 56.5777 53.6261 56.5777 50.4679C56.5777 47.5352 54.0734 45.0537 51.1138 45.0537C47.9266 45.0537 45.4223 47.5352 45.4223 50.4679Z" fill="#FFC4C4"/>
</svg>
