<svg width="81" height="90" viewBox="0 0 81 90" fill="none" xmlns="http://www.w3.org/2000/svg">
<path fill-rule="evenodd" clip-rule="evenodd" d="M81 6.4342C78.1722 2.54093 73.4441 0 68.4468 0C63.2927 0 58.9632 2.45823 56.0769 6.14558C53.1906 2.45823 48.655 0 43.5009 0C37.3159 0 31.7494 3.8922 29.2755 9.42323C20.8227 10.4475 14.8439 18.027 15.4624 25.6066C11.1329 28.2697 3.29864 36.0541 7.00962 47.321C2.47398 50.8035 0 56.1297 0 61.6607C0 68.4208 3.50481 74.5664 9.27743 77.8441C9.09706 82.1454 10.5342 86.1724 13.0366 89.3077H31.4112C31.316 89.0405 31.2227 88.77 31.1309 88.4964C27.6261 89.111 27.2138 89.111 26.3891 89.111C20.6165 89.111 15.8747 84.3993 15.8747 78.6635C15.8747 77.8588 15.9631 77.3176 16.1398 76.235C16.233 75.664 16.3508 74.9423 16.4932 73.9519C11.3391 71.6985 6.59729 69.0354 6.59729 61.6607C6.59729 55.0564 11.1229 52.3624 15.1762 49.9496C15.2719 49.8927 15.3673 49.8359 15.4624 49.7792C12.7822 44.4531 12.7822 43.8385 12.7822 41.79C12.7822 34.825 17.3179 31.7522 22.8843 29.4988C22.7376 28.6971 22.591 28.0511 22.4628 27.4867C22.2308 26.4648 22.0597 25.711 22.0597 24.7872C22.0597 19.8707 26.183 15.9785 31.3371 15.9785H31.5433H34.2234C35.2542 11.2669 37.3159 6.55529 43.5009 6.55529C48.655 6.55529 52.7783 10.6523 52.7783 15.5688V87.8818H52.5721C52.5721 88.3651 52.5385 88.8411 52.4733 89.3077H59.4743C59.4092 88.8411 59.3756 88.3651 59.3756 87.8818V15.5688C59.3756 10.6523 63.2927 6.55529 68.4468 6.55529C74.6318 6.55529 76.6934 11.2669 77.9304 15.9785H80.4044H80.6106C80.7413 15.9785 80.8711 15.9808 81 15.9854V6.4342Z" fill="#ADC4FF"/>
</svg>
